<svg width="44" height="44" viewBox="0 0 44 44" fill="none" xmlns="http://www.w3.org/2000/svg">
<g filter="url(#filter0_d_54_82)">
<path fill-rule="evenodd" clip-rule="evenodd" d="M14 0C8.47715 0 4 4.47715 4 10V26C4 31.5228 8.47715 36 14 36H30C35.5228 36 40 31.5228 40 26V10C40 4.47715 35.5228 0 30 0H14ZM25.3391 25.92H27.5593L27.5601 25.92V13.3378C27.464 12.7067 27.3547 12.2434 27.2245 11.9504C28.3373 11.5929 29.0564 11.4126 29.392 11.4126C29.8523 11.4126 30.2025 11.6403 30.4428 12.1004C30.6225 12.4486 30.7093 12.8606 30.7093 13.3378V25.92H33.52V12.8093C33.4161 11.7973 33.2263 11.1188 32.952 10.7714C32.6009 10.3384 31.9539 10.1107 31.01 10.0827C29.2773 10.0415 27.9669 10.4744 27.0835 11.3807C26.5922 10.5156 25.8917 10.0827 24.9858 10.0827C23.6366 10.0827 22.7044 10.413 22.186 11.0706C21.8202 11.5377 21.6381 12.2295 21.6381 13.1466V22.853C21.6381 23.9403 21.1654 24.4821 20.2215 24.4821C19.707 24.4821 19.1971 24.2815 18.6903 23.882C18.299 23.5688 18.0355 23.2385 17.9092 22.8833C17.8154 22.6174 17.765 22.2117 17.765 21.6669V12.9492C17.765 12.1238 17.4915 11.4398 16.939 10.8973C16.3903 10.3555 15.6549 10.0827 14.7421 10.0827C13.4239 10.0827 12.3847 10.4434 11.6222 11.1662C10.8612 11.8883 10.48 12.8435 10.48 14.0257V25.92H11.272V14.5744C11.272 12.6181 11.8772 11.6403 13.0923 11.6403C14.5274 11.6403 15.2442 12.5396 15.2442 14.3358V22.9135C15.2442 23.5548 15.4534 24.1198 15.8688 24.6111C16.6034 25.4839 17.7077 25.92 19.17 25.92C19.848 25.92 20.4122 25.7256 20.857 25.3409L22.1069 23.9535C22.3162 23.718 22.4184 23.0978 22.4184 22.0858V13.1458C22.4184 12.6492 22.5448 12.2295 22.7989 11.8882C23.0888 11.5043 23.5002 11.3092 24.0334 11.3092C24.4146 11.3092 24.737 11.5447 25.0036 12.0188C25.2291 12.4168 25.3391 12.8295 25.3391 13.2562V25.92Z" fill="#8E3434"/>
</g>
<defs>
<filter id="filter0_d_54_82" x="0" y="0" width="44" height="44" filterUnits="userSpaceOnUse" color-interpolation-filters="sRGB">
<feFlood flood-opacity="0" result="BackgroundImageFix"/>
<feColorMatrix in="SourceAlpha" type="matrix" values="0 0 0 0 0 0 0 0 0 0 0 0 0 0 0 0 0 0 127 0" result="hardAlpha"/>
<feOffset dy="4"/>
<feGaussianBlur stdDeviation="2"/>
<feComposite in2="hardAlpha" operator="out"/>
<feColorMatrix type="matrix" values="0 0 0 0 0 0 0 0 0 0 0 0 0 0 0 0 0 0 0.25 0"/>
<feBlend mode="normal" in2="BackgroundImageFix" result="effect1_dropShadow_54_82"/>
<feBlend mode="normal" in="SourceGraphic" in2="effect1_dropShadow_54_82" result="shape"/>
</filter>
</defs>
</svg>
